<svg xmlns="http://www.w3.org/2000/svg" xmlns:xlink="http://www.w3.org/1999/xlink" contentStyleType="text/css" data-diagram-type="CLASS" height="898px" preserveAspectRatio="none" style="width:298px;height:898px;background:#FFFFFF;" version="1.1" viewBox="0 0 298 898" width="298px" zoomAndPan="magnify"><defs/><g><!--class Gateway--><g class="entity" data-entity="Gateway" data-source-line="2" data-uid="ent0002" id="entity_Gateway"><rect fill="#F1F1F1" height="113.1875" rx="2.5" ry="2.5" style="stroke:#181818;stroke-width:0.5;" width="132.333" x="83.02" y="7"/><ellipse cx="115.3397" cy="23" fill="#ADD1B2" rx="11" ry="11" style="stroke:#181818;stroke-width:1;"/><path d="M118.3085,28.6406 Q117.7304,28.9375 117.0897,29.0781 Q116.4491,29.2344 115.746,29.2344 Q113.246,29.2344 111.9179,27.5938 Q110.6054,25.9375 110.6054,22.8125 Q110.6054,19.6875 111.9179,18.0313 Q113.246,16.375 115.746,16.375 Q116.4491,16.375 117.0897,16.5313 Q117.746,16.6875 118.3085,16.9844 L118.3085,19.7031 Q117.6835,19.125 117.0897,18.8594 Q116.496,18.5781 115.871,18.5781 Q114.5272,18.5781 113.8397,19.6563 Q113.1522,20.7188 113.1522,22.8125 Q113.1522,24.9063 113.8397,25.9844 Q114.5272,27.0469 115.871,27.0469 Q116.496,27.0469 117.0897,26.7813 Q117.6835,26.5 118.3085,25.9219 L118.3085,28.6406 Z " fill="#000000"/><text fill="#000000" font-family="sans-serif" font-size="14" lengthAdjust="spacing" textLength="61.8447" x="133.1886" y="27.8467">Gateway</text><line style="stroke:#181818;stroke-width:0.5;" x1="84.02" x2="214.353" y1="39" y2="39"/><line style="stroke:#181818;stroke-width:0.5;" x1="84.02" x2="214.353" y1="47" y2="47"/><ellipse cx="94.02" cy="60.6484" fill="#84BE84" rx="3" ry="3" style="stroke:#038048;stroke-width:1;"/><text fill="#000000" font-family="sans-serif" font-size="14" lengthAdjust="spacing" textLength="34.4258" x="103.02" y="63.9951">run()</text><rect fill="#F24D5C" height="6" style="stroke:#C82930;stroke-width:1;" width="6" x="91.02" y="73.9453"/><text fill="#000000" font-family="sans-serif" font-size="14" lengthAdjust="spacing" textLength="106.333" x="103.02" y="80.292">verificarLogin()</text><rect fill="#F24D5C" height="6" style="stroke:#C82930;stroke-width:1;" width="6" x="91.02" y="90.2422"/><text fill="#000000" font-family="sans-serif" font-size="14" lengthAdjust="spacing" textLength="98.1094" x="103.02" y="96.5889">verificarPost()</text><rect fill="#F24D5C" height="6" style="stroke:#C82930;stroke-width:1;" width="6" x="91.02" y="106.5391"/><text fill="#000000" font-family="sans-serif" font-size="14" lengthAdjust="spacing" textLength="93.2695" x="103.02" y="112.8857">verificarGet()</text></g><!--class Login--><g class="entity" data-entity="Login" data-source-line="10" data-uid="ent0003" id="entity_Login"><rect fill="#F1F1F1" height="210.9688" rx="2.5" ry="2.5" style="stroke:#181818;stroke-width:0.5;" width="144.3779" x="7" y="197.19"/><ellipse cx="55.9316" cy="213.19" fill="#ADD1B2" rx="11" ry="11" style="stroke:#181818;stroke-width:1;"/><path d="M58.9004,218.8306 Q58.3223,219.1275 57.6816,219.2681 Q57.041,219.4244 56.3379,219.4244 Q53.8379,219.4244 52.5098,217.7838 Q51.1973,216.1275 51.1973,213.0025 Q51.1973,209.8775 52.5098,208.2213 Q53.8379,206.565 56.3379,206.565 Q57.041,206.565 57.6816,206.7213 Q58.3379,206.8775 58.9004,207.1744 L58.9004,209.8931 Q58.2754,209.315 57.6816,209.0494 Q57.0879,208.7681 56.4629,208.7681 Q55.1191,208.7681 54.4316,209.8463 Q53.7441,210.9088 53.7441,213.0025 Q53.7441,215.0963 54.4316,216.1744 Q55.1191,217.2369 56.4629,217.2369 Q57.0879,217.2369 57.6816,216.9713 Q58.2754,216.69 58.9004,216.1119 L58.9004,218.8306 Z " fill="#000000"/><text fill="#000000" font-family="sans-serif" font-size="14" lengthAdjust="spacing" textLength="38.0146" x="76.4316" y="218.0367">Login</text><line style="stroke:#181818;stroke-width:0.5;" x1="8" x2="150.3779" y1="229.19" y2="229.19"/><rect fill="none" height="6" style="stroke:#C82930;stroke-width:1;" width="6" x="15" y="239.8384"/><text fill="#000000" font-family="sans-serif" font-size="14" lengthAdjust="spacing" textLength="114.2012" x="27" y="246.1851">usuario: Usuario</text><rect fill="none" height="6" style="stroke:#C82930;stroke-width:1;" width="6" x="15" y="256.1353"/><text fill="#000000" font-family="sans-serif" font-size="14" lengthAdjust="spacing" textLength="42.2324" x="27" y="262.482">senha</text><rect fill="none" height="6" style="stroke:#C82930;stroke-width:1;" width="6" x="15" y="272.4322"/><text fill="#000000" font-family="sans-serif" font-size="14" lengthAdjust="spacing" textLength="38.6094" x="27" y="278.7789">email</text><line style="stroke:#181818;stroke-width:0.5;" x1="8" x2="150.3779" y1="286.0806" y2="286.0806"/><ellipse cx="18" cy="299.7291" fill="#84BE84" rx="3" ry="3" style="stroke:#038048;stroke-width:1;"/><text fill="#000000" font-family="sans-serif" font-size="14" lengthAdjust="spacing" textLength="90.6582" x="27" y="303.0757">__construct()</text><ellipse cx="18" cy="316.0259" fill="#84BE84" rx="3" ry="3" style="stroke:#038048;stroke-width:1;"/><text fill="#000000" font-family="sans-serif" font-size="14" lengthAdjust="spacing" textLength="77.7383" x="27" y="319.3726">getSenha()</text><ellipse cx="18" cy="332.3228" fill="#84BE84" rx="3" ry="3" style="stroke:#038048;stroke-width:1;"/><text fill="#000000" font-family="sans-serif" font-size="14" lengthAdjust="spacing" textLength="118.3779" x="27" y="335.6695">setSenha(senha)</text><ellipse cx="18" cy="348.6197" fill="#84BE84" rx="3" ry="3" style="stroke:#038048;stroke-width:1;"/><text fill="#000000" font-family="sans-serif" font-size="14" lengthAdjust="spacing" textLength="72.7549" x="27" y="351.9664">getEmail()</text><ellipse cx="18" cy="364.9166" fill="#84BE84" rx="3" ry="3" style="stroke:#038048;stroke-width:1;"/><text fill="#000000" font-family="sans-serif" font-size="14" lengthAdjust="spacing" textLength="109.7715" x="27" y="368.2632">setEmail(email)</text><ellipse cx="18" cy="381.2134" fill="#84BE84" rx="3" ry="3" style="stroke:#038048;stroke-width:1;"/><text fill="#000000" font-family="sans-serif" font-size="14" lengthAdjust="spacing" textLength="45.0283" x="27" y="384.5601">login()</text><ellipse cx="18" cy="397.5103" fill="#84BE84" rx="3" ry="3" style="stroke:#038048;stroke-width:1;"/><text fill="#000000" font-family="sans-serif" font-size="14" lengthAdjust="spacing" textLength="55.1934" x="27" y="400.857">logout()</text></g><!--class Usuario--><g class="entity" data-entity="Usuario" data-source-line="24" data-uid="ent0004" id="entity_Usuario"><rect fill="#F1F1F1" height="406.5313" rx="2.5" ry="2.5" style="stroke:#181818;stroke-width:0.5;" width="184.2246" x="61.08" y="485.16"/><ellipse cx="122.3403" cy="501.16" fill="#ADD1B2" rx="11" ry="11" style="stroke:#181818;stroke-width:1;"/><path d="M125.309,506.8006 Q124.7309,507.0975 124.0903,507.2381 Q123.4496,507.3944 122.7465,507.3944 Q120.2465,507.3944 118.9184,505.7538 Q117.6059,504.0975 117.6059,500.9725 Q117.6059,497.8475 118.9184,496.1913 Q120.2465,494.535 122.7465,494.535 Q123.4496,494.535 124.0903,494.6913 Q124.7465,494.8475 125.309,495.1444 L125.309,497.8631 Q124.684,497.285 124.0903,497.0194 Q123.4965,496.7381 122.8715,496.7381 Q121.5278,496.7381 120.8403,497.8163 Q120.1528,498.8788 120.1528,500.9725 Q120.1528,503.0663 120.8403,504.1444 Q121.5278,505.2069 122.8715,505.2069 Q123.4965,505.2069 124.0903,504.9413 Q124.684,504.66 125.309,504.0819 L125.309,506.8006 Z " fill="#000000"/><text fill="#000000" font-family="sans-serif" font-size="14" lengthAdjust="spacing" textLength="53.2041" x="142.8403" y="506.0067">Usuario</text><line style="stroke:#181818;stroke-width:0.5;" x1="62.08" x2="244.3046" y1="517.16" y2="517.16"/><rect fill="none" height="6" style="stroke:#C82930;stroke-width:1;" width="6" x="69.08" y="527.8084"/><text fill="#000000" font-family="sans-serif" font-size="14" lengthAdjust="spacing" textLength="12.7764" x="81.08" y="534.1551">id</text><rect fill="none" height="6" style="stroke:#C82930;stroke-width:1;" width="6" x="69.08" y="544.1053"/><text fill="#000000" font-family="sans-serif" font-size="14" lengthAdjust="spacing" textLength="59.1787" x="81.08" y="550.452">conexao</text><rect fill="none" height="6" style="stroke:#C82930;stroke-width:1;" width="6" x="69.08" y="560.4022"/><text fill="#000000" font-family="sans-serif" font-size="14" lengthAdjust="spacing" textLength="38.6094" x="81.08" y="566.7489">email</text><rect fill="none" height="6" style="stroke:#C82930;stroke-width:1;" width="6" x="69.08" y="576.6991"/><text fill="#000000" font-family="sans-serif" font-size="14" lengthAdjust="spacing" textLength="42.2324" x="81.08" y="583.0457">senha</text><rect fill="none" height="6" style="stroke:#C82930;stroke-width:1;" width="6" x="69.08" y="592.9959"/><text fill="#000000" font-family="sans-serif" font-size="14" lengthAdjust="spacing" textLength="55.5898" x="81.08" y="599.3426">eh_adm</text><line style="stroke:#181818;stroke-width:0.5;" x1="62.08" x2="244.3046" y1="606.6444" y2="606.6444"/><ellipse cx="72.08" cy="620.2928" fill="#84BE84" rx="3" ry="3" style="stroke:#038048;stroke-width:1;"/><text fill="#000000" font-family="sans-serif" font-size="14" lengthAdjust="spacing" textLength="90.6582" x="81.08" y="623.6395">__construct()</text><ellipse cx="72.08" cy="636.5897" fill="#84BE84" rx="3" ry="3" style="stroke:#038048;stroke-width:1;"/><text fill="#000000" font-family="sans-serif" font-size="14" lengthAdjust="spacing" textLength="46.9287" x="81.08" y="639.9364">getId()</text><ellipse cx="72.08" cy="652.8866" fill="#84BE84" rx="3" ry="3" style="stroke:#038048;stroke-width:1;"/><text fill="#000000" font-family="sans-serif" font-size="14" lengthAdjust="spacing" textLength="58.1123" x="81.08" y="656.2332">setId(id)</text><ellipse cx="72.08" cy="669.1834" fill="#84BE84" rx="3" ry="3" style="stroke:#038048;stroke-width:1;"/><text fill="#000000" font-family="sans-serif" font-size="14" lengthAdjust="spacing" textLength="95.1699" x="81.08" y="672.5301">getConexao()</text><ellipse cx="72.08" cy="685.4803" fill="#84BE84" rx="3" ry="3" style="stroke:#038048;stroke-width:1;"/><text fill="#000000" font-family="sans-serif" font-size="14" lengthAdjust="spacing" textLength="152.7559" x="81.08" y="688.827">setConexao(conexao)</text><ellipse cx="72.08" cy="701.7772" fill="#84BE84" rx="3" ry="3" style="stroke:#038048;stroke-width:1;"/><text fill="#000000" font-family="sans-serif" font-size="14" lengthAdjust="spacing" textLength="72.7549" x="81.08" y="705.1239">getEmail()</text><ellipse cx="72.08" cy="718.0741" fill="#84BE84" rx="3" ry="3" style="stroke:#038048;stroke-width:1;"/><text fill="#000000" font-family="sans-serif" font-size="14" lengthAdjust="spacing" textLength="109.7715" x="81.08" y="721.4207">setEmail(email)</text><ellipse cx="72.08" cy="734.3709" fill="#84BE84" rx="3" ry="3" style="stroke:#038048;stroke-width:1;"/><text fill="#000000" font-family="sans-serif" font-size="14" lengthAdjust="spacing" textLength="77.7383" x="81.08" y="737.7176">getSenha()</text><ellipse cx="72.08" cy="750.6678" fill="#84BE84" rx="3" ry="3" style="stroke:#038048;stroke-width:1;"/><text fill="#000000" font-family="sans-serif" font-size="14" lengthAdjust="spacing" textLength="118.3779" x="81.08" y="754.0145">setSenha(senha)</text><ellipse cx="72.08" cy="766.9647" fill="#84BE84" rx="3" ry="3" style="stroke:#038048;stroke-width:1;"/><text fill="#000000" font-family="sans-serif" font-size="14" lengthAdjust="spacing" textLength="83.7334" x="81.08" y="770.3114">getEhAdm()</text><ellipse cx="72.08" cy="783.2616" fill="#84BE84" rx="3" ry="3" style="stroke:#038048;stroke-width:1;"/><text fill="#000000" font-family="sans-serif" font-size="14" lengthAdjust="spacing" textLength="137.7305" x="81.08" y="786.6082">setEhAdm(eh_adm)</text><ellipse cx="72.08" cy="799.5584" fill="#84BE84" rx="3" ry="3" style="stroke:#038048;stroke-width:1;"/><text fill="#000000" font-family="sans-serif" font-size="14" lengthAdjust="spacing" textLength="54.9951" x="81.08" y="802.9051">inserir()</text><ellipse cx="72.08" cy="815.8553" fill="#84BE84" rx="3" ry="3" style="stroke:#038048;stroke-width:1;"/><text fill="#000000" font-family="sans-serif" font-size="14" lengthAdjust="spacing" textLength="45.8213" x="81.08" y="819.202">listar()</text><ellipse cx="72.08" cy="832.1522" fill="#84BE84" rx="3" ry="3" style="stroke:#038048;stroke-width:1;"/><text fill="#000000" font-family="sans-serif" font-size="14" lengthAdjust="spacing" textLength="58.0098" x="81.08" y="835.4989">buscar()</text><ellipse cx="72.08" cy="848.4491" fill="#84BE84" rx="3" ry="3" style="stroke:#038048;stroke-width:1;"/><text fill="#000000" font-family="sans-serif" font-size="14" lengthAdjust="spacing" textLength="71.9072" x="81.08" y="851.7957">atualizar()</text><ellipse cx="72.08" cy="864.7459" fill="#84BE84" rx="3" ry="3" style="stroke:#038048;stroke-width:1;"/><text fill="#000000" font-family="sans-serif" font-size="14" lengthAdjust="spacing" textLength="57.9277" x="81.08" y="868.0926">excluir()</text><ellipse cx="72.08" cy="881.0428" fill="#84BE84" rx="3" ry="3" style="stroke:#038048;stroke-width:1;"/><text fill="#000000" font-family="sans-serif" font-size="14" lengthAdjust="spacing" textLength="158.2246" x="81.08" y="884.3895">buscarPorEmail(email)</text></g><!--link Gateway to Login--><g class="link" data-entity-1="Gateway" data-entity-2="Login" data-source-line="51" data-uid="lnk5" id="link_Gateway_Login"><path codeLine="51" d="M85.88,120.2 C78.69,129.46 72.43,139.55 68.19,150.19 C62.39,164.77 60.0317,174.7522 59.6017,190.7022" fill="none" id="Gateway-to-Login" style="stroke:#181818;stroke-width:1;"/><polygon fill="#181818" points="59.44,196.7,63.6811,187.8111,59.5747,191.7018,55.684,187.5955,59.44,196.7" style="stroke:#181818;stroke-width:1;"/><text fill="#000000" font-family="sans-serif" font-size="13" lengthAdjust="spacing" textLength="132.5454" x="69.19" y="163.2569">chama autentica&#231;&#227;o</text></g><!--link Gateway to Usuario--><g class="link" data-entity-1="Gateway" data-entity-2="Usuario" data-source-line="52" data-uid="lnk6" id="link_Gateway_Usuario"><path codeLine="52" d="M192.81,120.26 C198.31,129.79 203.09,139.94 206.19,150.19 C208.38,157.42 206.57,159.64 206.19,167.19 C200.85,272.25 190.1625,382.8278 179.3225,478.9278" fill="none" id="Gateway-to-Usuario" style="stroke:#181818;stroke-width:1;"/><polygon fill="#181818" points="178.65,484.89,183.6336,476.3951,179.2104,479.9215,175.684,475.4984,178.65,484.89" style="stroke:#181818;stroke-width:1;"/><text fill="#000000" font-family="sans-serif" font-size="13" lengthAdjust="spacing" textLength="85.7505" x="205.19" y="307.2369">chama CRUD</text></g><!--link Login to Usuario--><g class="link" data-entity-1="Login" data-entity-2="Usuario" data-source-line="53" data-uid="lnk7" id="link_Login_Usuario"><path codeLine="53" d="M99.41,408.54 C104.01,432.39 107.9145,452.6284 113.0045,479.0384" fill="none" id="Login-to-Usuario" style="stroke:#181818;stroke-width:1;"/><polygon fill="#181818" points="114.14,484.93,116.3645,475.3356,113.1938,480.0204,108.5091,476.8496,114.14,484.93" style="stroke:#181818;stroke-width:1;"/><text fill="#000000" font-family="sans-serif" font-size="13" lengthAdjust="spacing" textLength="38.9619" x="108.19" y="451.2269">utiliza</text></g><!--SRC=[bL9BJiCm4Dtx5DuLLEK2NI2XW2ea5bLHrz7W3Cr8IIpv0mN4QLXm0axGY-5lywc489lCUtwUUS_sWfSjQ8ry3GPVu9K93pFYxuoxRwbiVt4Pok8P5JsH07KlztJERgGsP-GQFVV1s29F2vlJh52dIONL5XJ95T_58h8Q-mPYYHrG6rrLbP2zDigAF7AvH_FWjHdhZ4E7GNJhkun44OVUYMn7yJoGTfuXEumf4ievg8v_vn0F8EVU9ucQ2khkjqXtzSYg0rGFQsKSC19a9et-J-W_7rzpNNVZJW7788cbNhlhLwSJ96tWX1wj5WC2Ow6bju70WsWjpTGRgIQ6mrLiiONZr_4RDMFvpHR5LNfJAouQw823DTWRznATz5DEXFdQihJSxcvOt3rTjeQynny0]--></g></svg>