<svg xmlns="http://www.w3.org/2000/svg" xmlns:xlink="http://www.w3.org/1999/xlink" contentStyleType="text/css" data-diagram-type="DESCRIPTION" height="468px" preserveAspectRatio="none" style="width:506px;height:468px;background:#FFFFFF;" version="1.1" viewBox="0 0 506 468" width="506px" zoomAndPan="magnify"><defs/><g><!--cluster Sistema--><g class="cluster" data-entity="Sistema" data-source-line="7" data-uid="ent0005" id="cluster_Sistema"><rect fill="none" height="418" rx="2.5" ry="2.5" style="stroke:#181818;stroke-width:1;" width="373.1" x="127.31" y="7"/><text fill="#000000" font-family="sans-serif" font-size="14" font-weight="bold" lengthAdjust="spacing" textLength="63.4375" x="282.1413" y="21.9951">Sistema</text></g><!--entity Login--><g class="entity" data-entity="Login" data-source-line="8" data-uid="ent0006" id="entity_Login"><ellipse cx="454.5304" cy="287.0036" fill="#F1F1F1" rx="29.8804" ry="14.5236" style="stroke:#181818;stroke-width:0.5;"/><text fill="#000000" font-family="sans-serif" font-size="14" lengthAdjust="spacing" textLength="38.0146" x="435.5231" y="291.6521">Login</text></g><!--entity Logout--><g class="entity" data-entity="Logout" data-source-line="9" data-uid="ent0007" id="entity_Logout"><ellipse cx="221.4782" cy="394.0036" fill="#F1F1F1" rx="37.0682" ry="14.5236" style="stroke:#181818;stroke-width:0.5;"/><text fill="#000000" font-family="sans-serif" font-size="14" lengthAdjust="spacing" textLength="48.1797" x="197.3883" y="398.6521">Logout</text></g><!--entity Cadastrar--><g class="entity" data-entity="Cadastrar" data-source-line="10" data-uid="ent0008" id="entity_Cadastrar"><ellipse cx="221.4842" cy="57.0036" fill="#F1F1F1" rx="51.5742" ry="14.5236" style="stroke:#181818;stroke-width:0.5;"/><text fill="#000000" font-family="sans-serif" font-size="14" lengthAdjust="spacing" textLength="68.6943" x="187.1371" y="61.6521">Cadastrar</text></g><!--entity Visualizar--><g class="entity" data-entity="Visualizar" data-source-line="11" data-uid="ent0009" id="entity_Visualizar"><ellipse cx="221.484" cy="257.0028" fill="#F1F1F1" rx="68.964" ry="16.1928" style="stroke:#181818;stroke-width:0.5;"/><text fill="#000000" font-family="sans-serif" font-size="14" lengthAdjust="spacing" textLength="103.7559" x="169.606" y="261.6512">Listar Usu&#225;rios</text></g><!--entity Cadastrar Usu?rio--><g class="entity" data-entity="Cadastrar Usu.rio" data-source-line="12" data-uid="ent0010" id="entity_Cadastrar Usu.rio"><ellipse cx="221.4826" cy="326.0045" fill="#F1F1F1" rx="78.1726" ry="18.0345" style="stroke:#181818;stroke-width:0.5;"/><text fill="#000000" font-family="sans-serif" font-size="14" lengthAdjust="spacing" textLength="126.3486" x="158.3083" y="330.653">Cadastrar Usu&#225;rio</text></g><!--entity Editar Usu?rio--><g class="entity" data-entity="Editar Usu.rio" data-source-line="13" data-uid="ent0011" id="entity_Editar Usu.rio"><ellipse cx="221.4795" cy="189.9999" fill="#F1F1F1" rx="67.1495" ry="15.8299" style="stroke:#181818;stroke-width:0.5;"/><text fill="#000000" font-family="sans-serif" font-size="14" lengthAdjust="spacing" textLength="99.1006" x="171.9292" y="194.6483">Editar Usu&#225;rio</text></g><!--entity Excluir Usu?rio--><g class="entity" data-entity="Excluir Usu.rio" data-source-line="14" data-uid="ent0012" id="entity_Excluir Usu.rio"><ellipse cx="221.4811" cy="123.0022" fill="#F1F1F1" rx="69.4111" ry="16.2822" style="stroke:#181818;stroke-width:0.5;"/><text fill="#000000" font-family="sans-serif" font-size="14" lengthAdjust="spacing" textLength="104.8906" x="169.0358" y="127.6507">Excluir Usu&#225;rio</text></g><!--entity Convidado--><g class="entity" data-entity="Convidado" data-source-line="3" data-uid="ent0002" id="entity_Convidado"><ellipse cx="43.1533" cy="27.36" fill="#F1F1F1" rx="8" ry="8" style="stroke:#181818;stroke-width:0.5;"/><path d="M43.1533,35.36 L43.1533,62.36 M30.1533,43.36 L56.1533,43.36 M43.1533,62.36 L30.1533,77.36 M43.1533,62.36 L56.1533,77.36" fill="none" style="stroke:#181818;stroke-width:0.5;"/><text fill="#000000" font-family="sans-serif" font-size="14" lengthAdjust="spacing" textLength="74.3066" x="6" y="91.8551">Convidado</text></g><!--entity Usuario--><g class="entity" data-entity="Usuario" data-source-line="4" data-uid="ent0003" id="entity_Usuario"><ellipse cx="43.1521" cy="296.36" fill="#F1F1F1" rx="8" ry="8" style="stroke:#181818;stroke-width:0.5;"/><path d="M43.1521,304.36 L43.1521,331.36 M30.1521,312.36 L56.1521,312.36 M43.1521,331.36 L30.1521,346.36 M43.1521,331.36 L56.1521,346.36" fill="none" style="stroke:#181818;stroke-width:0.5;"/><text fill="#000000" font-family="sans-serif" font-size="14" lengthAdjust="spacing" textLength="53.2041" x="16.55" y="360.8551">Usuario</text></g><!--entity Admin--><g class="entity" data-entity="Admin" data-source-line="5" data-uid="ent0004" id="entity_Admin"><ellipse cx="43.1521" cy="160.36" fill="#F1F1F1" rx="8" ry="8" style="stroke:#181818;stroke-width:0.5;"/><path d="M43.1521,168.36 L43.1521,195.36 M30.1521,176.36 L56.1521,176.36 M43.1521,195.36 L30.1521,210.36 M43.1521,195.36 L56.1521,210.36" fill="none" style="stroke:#181818;stroke-width:0.5;"/><text fill="#000000" font-family="sans-serif" font-size="14" lengthAdjust="spacing" textLength="44.8643" x="20.72" y="224.8551">Admin</text></g><!--link Convidado to Cadastrar--><g class="link" data-entity-1="Convidado" data-entity-2="Cadastrar" data-source-line="18" data-uid="lnk13" id="link_Convidado_Cadastrar"><path d="M80.69,57 C106.41,57 135.19,57 163.62,57" fill="none" id="Convidado-to-Cadastrar" style="stroke:#181818;stroke-width:1;"/><polygon fill="#181818" points="169.62,57,160.62,53,164.62,57,160.62,61,169.62,57" style="stroke:#181818;stroke-width:1;"/></g><!--link Usuario to Login--><g class="link" data-entity-1="Usuario" data-entity-2="Login" data-source-line="21" data-uid="lnk14" id="link_Usuario_Login"><path d="M61.92,364.65 C74.48,387.01 93.66,413.2 119.31,426 C191.02,461.81 221.84,445.23 299.65,426 C345.97,414.56 359.27,408.01 394.65,376 C418.83,354.13 434.9396,325.6529 444.3096,306.6229" fill="none" id="Usuario-to-Login" style="stroke:#181818;stroke-width:1;"/><polygon fill="#181818" points="446.96,301.24,439.3958,307.5474,444.7513,305.7257,446.573,311.0812,446.96,301.24" style="stroke:#181818;stroke-width:1;"/></g><!--link Usuario to Visualizar--><g class="link" data-entity-1="Usuario" data-entity-2="Visualizar" data-source-line="22" data-uid="lnk15" id="link_Usuario_Visualizar"><path d="M70.21,312.48 C84.5,305.33 102.65,296.68 119.31,290 C138,282.52 153.3958,277.2183 171.4758,271.5383" fill="none" id="Usuario-to-Visualizar" style="stroke:#181818;stroke-width:1;"/><polygon fill="#181818" points="177.2,269.74,167.4149,268.6213,172.4299,271.2386,169.8126,276.2536,177.2,269.74" style="stroke:#181818;stroke-width:1;"/></g><!--link Usuario to Cadastrar Usu?rio--><g class="link" data-entity-1="Usuario" data-entity-2="Cadastrar Usu.rio" data-source-line="23" data-uid="lnk16" id="link_Usuario_Cadastrar Usu.rio"><path d="M70.17,326 C89.52,326 111,326 137.18,326" fill="none" id="Usuario-to-Cadastrar Usu&#225;rio" style="stroke:#181818;stroke-width:1;"/><polygon fill="#181818" points="143.18,326,134.18,322,138.18,326,134.18,330,143.18,326" style="stroke:#181818;stroke-width:1;"/></g><!--link Usuario to Logout--><g class="link" data-entity-1="Usuario" data-entity-2="Logout" data-source-line="24" data-uid="lnk17" id="link_Usuario_Logout"><path d="M70.18,339.59 C84.47,346.76 102.62,355.41 119.31,362 C142.78,371.28 164.3378,378.1277 184.6678,384.0277" fill="none" id="Usuario-to-Logout" style="stroke:#181818;stroke-width:1;"/><polygon fill="#181818" points="190.43,385.7,182.9015,379.3501,185.6281,384.3064,180.6718,387.0331,190.43,385.7" style="stroke:#181818;stroke-width:1;"/></g><!--link Admin to Editar Usu?rio--><g class="link" data-entity-1="Admin" data-entity-2="Editar Usu.rio" data-source-line="27" data-uid="lnk18" id="link_Admin_Editar Usu.rio"><path d="M65.77,190 C87.75,190 116.92,190 148.18,190" fill="none" id="Admin-to-Editar Usu&#225;rio" style="stroke:#181818;stroke-width:1;"/><polygon fill="#181818" points="154.18,190,145.18,186,149.18,190,145.18,194,154.18,190" style="stroke:#181818;stroke-width:1;"/></g><!--link Admin to Excluir Usu?rio--><g class="link" data-entity-1="Admin" data-entity-2="Excluir Usu.rio" data-source-line="28" data-uid="lnk19" id="link_Admin_Excluir Usu.rio"><path d="M65.97,179.81 C80.86,173 101.1,164.05 119.31,157 C138.66,149.52 154.7471,143.9448 173.1271,137.9348" fill="none" id="Admin-to-Excluir Usu&#225;rio" style="stroke:#181818;stroke-width:1;"/><polygon fill="#181818" points="178.83,136.07,169.0325,135.0652,174.0776,137.624,171.5189,142.669,178.83,136.07" style="stroke:#181818;stroke-width:1;"/></g><!--link Visualizar to Login--><g class="link" data-entity-1="Visualizar" data-entity-2="Login" data-source-line="31" data-uid="lnk20" id="link_Visualizar_Login"><path d="M282.58,264.81 C328.58,270.78 383.9898,277.9782 419.2998,282.5582" fill="none" id="Visualizar-to-Login" style="stroke:#181818;stroke-width:1;stroke-dasharray:7,7;"/><polygon fill="#181818" points="425.25,283.33,416.8393,278.2056,420.2915,282.6868,415.8102,286.1391,425.25,283.33" style="stroke:#181818;stroke-width:1;"/><text fill="#000000" font-family="sans-serif" font-size="13" lengthAdjust="spacing" textLength="63.0068" x="330.65" y="268.0669">&#171;include&#187;</text></g><!--link Logout to Login--><g class="link" data-entity-1="Logout" data-entity-2="Login" data-source-line="32" data-uid="lnk21" id="link_Logout_Login"><path d="M255.59,388.03 C291.56,380.55 349.89,365.54 394.65,340 C413.05,329.51 426.535,316.8547 437.615,304.9347" fill="none" id="Logout-to-Login" style="stroke:#181818;stroke-width:1;stroke-dasharray:7,7;"/><polygon fill="#181818" points="441.7,300.54,432.6428,304.4087,438.2959,304.2022,438.5023,309.8553,441.7,300.54" style="stroke:#181818;stroke-width:1;"/><text fill="#000000" font-family="sans-serif" font-size="13" lengthAdjust="spacing" textLength="61.1851" x="331.65" y="336.0669">&#171;extend&#187;</text></g><!--link Cadastrar Usu?rio to Login--><g class="link" data-entity-1="Cadastrar Usu.rio" data-entity-2="Login" data-source-line="33" data-uid="lnk22" id="link_Cadastrar Usu.rio_Login"><path d="M294.51,319.3 C325.51,315.77 362.04,310.75 394.65,304 C406.11,301.63 412.8586,299.9026 423.3686,296.7126" fill="none" id="Cadastrar Usu&#225;rio-to-Login" style="stroke:#181818;stroke-width:1;stroke-dasharray:7,7;"/><polygon fill="#181818" points="429.11,294.97,419.3362,293.7564,424.3255,296.4222,421.6597,301.4115,429.11,294.97" style="stroke:#181818;stroke-width:1;"/><text fill="#000000" font-family="sans-serif" font-size="13" lengthAdjust="spacing" textLength="61.1851" x="331.65" y="300.0669">&#171;extend&#187;</text></g><!--link Editar Usu?rio to Login--><g class="link" data-entity-1="Editar Usu.rio" data-entity-2="Login" data-source-line="34" data-uid="lnk23" id="link_Editar Usu.rio_Login"><path d="M268.79,201.57 C304.25,211.31 353.85,226.88 394.65,247 C410.17,254.66 421.525,262.2933 432.985,270.9133" fill="none" id="Editar Usu&#225;rio-to-Login" style="stroke:#181818;stroke-width:1;stroke-dasharray:7,7;"/><polygon fill="#181818" points="437.78,274.52,432.992,265.9133,433.7842,271.5144,428.1831,272.3066,437.78,274.52" style="stroke:#181818;stroke-width:1;"/><text fill="#000000" font-family="sans-serif" font-size="13" lengthAdjust="spacing" textLength="61.1851" x="331.65" y="217.0669">&#171;extend&#187;</text></g><!--link Excluir Usu?rio to Login--><g class="link" data-entity-1="Excluir Usu.rio" data-entity-2="Login" data-source-line="35" data-uid="lnk24" id="link_Excluir Usu.rio_Login"><path d="M270.42,134.97 C307.46,146.06 358.36,165.51 394.65,196 C420.15,217.43 436.0703,247.2618 444.9903,267.0118" fill="none" id="Excluir Usu&#225;rio-to-Login" style="stroke:#181818;stroke-width:1;stroke-dasharray:7,7;"/><polygon fill="#181818" points="447.46,272.48,447.4009,262.6313,445.4019,267.9232,440.1101,265.9242,447.46,272.48" style="stroke:#181818;stroke-width:1;"/><text fill="#000000" font-family="sans-serif" font-size="13" lengthAdjust="spacing" textLength="61.1851" x="331.65" y="155.0669">&#171;extend&#187;</text></g><!--link Admin to Usuario--><g class="link" data-entity-1="Admin" data-entity-2="Usuario" data-source-line="38" data-uid="lnk25" id="link_Admin_Usuario"><path d="M43.15,228.47 C43.15,248.14 43.15,249.81 43.15,269.49" fill="none" id="Admin-to-Usuario" style="stroke:#181818;stroke-width:1;"/><polygon fill="none" points="43.15,287.49,49.15,269.49,37.15,269.49,43.15,287.49" style="stroke:#181818;stroke-width:1;"/></g><!--SRC=[VLBBJiCm4BpxArQzG0_j1rHL95IGE702mNqLB-bAYOri1rKyFePJ9UvyGNuCnx537gK-UTSpipiZb_Jim6amNEmTI3QKEzPA2CoTDh3JwfKbIXthHrkZuLHToOezjEMWAag2nGDRHnKku5s0FvTtkc2rxE-wTh7OeKJh39hqw8aOz9ilFy0k0IqyiHzNyXkQ2Qd7HVQDP7UYUyZBceVjJo4ku9vAR8xD3zc1lVu6grKsMc_CI5gUMjMLY7bqf6Xss1iu645FEPbgXR36qqFWt1AbDY9K7NmMmF1j5eCNlQONKhBvLZaZI8Amk_XR5zRhtX5iOBjbvLKaPPb8kyqWT71UiqMSi7S6FLt-77JgvN-iDtbB1bLp30RHVzXD5o3ioSZGJDyvflMHfSul]--></g></svg>